<svg width="347" height="229" viewBox="0 0 347 229" fill="none" xmlns="http://www.w3.org/2000/svg">
<path d="M152.829 0.180189L248.597 228.872C248.597 228.872 182.658 233.153 163.836 192.283C149.265 160.644 82.2739 0.180189 82.2739 0.180189H152.829Z" fill="white"/>
<path fill-rule="evenodd" clip-rule="evenodd" d="M78.4678 215.494H0L82.2723 0.180189L120.891 92.1329L78.4678 215.494Z" fill="url(#paint0_linear_149_7611)"/>
<path d="M231.025 133.02L174.739 0.143109L174.863 0.109277C183.595 0.0901428 187.402 0.0901201 191.22 0.0900973C197.601 0.0900592 204.014 0.0900209 233.494 0.000798472C261.077 -0.082681 296.16 6.38109 314.149 18.7C332.437 30.7185 340.982 47.6947 339.783 69.6284H280.42C280.12 62.1168 276.822 56.5583 270.526 52.9527C264.23 49.3472 256.285 47.5444 246.691 47.5444C237.397 47.5444 229.452 49.6477 222.856 53.8541C216.56 57.7601 213.412 63.1685 213.412 70.0791C213.412 75.187 215.211 79.2432 218.808 82.2478C222.406 85.2524 226.004 87.2054 229.602 88.1068C233.499 88.7078 238.446 89.3087 244.442 89.9096C277.721 93.8156 300.207 98.1723 311.9 102.98C335.885 113.195 347.578 131.524 346.978 157.964C346.678 174.49 341.581 188.311 331.688 199.428C322.094 210.245 310.251 217.906 296.16 222.413C288.41 224.946 280.091 226.767 271.205 227.877L252.032 182.612C273.078 181.463 283.74 173.247 284.017 157.964C284.017 153.758 283.268 150.303 281.769 147.598C280.27 144.894 277.572 142.791 273.674 141.289C270.076 139.786 267.078 138.885 264.68 138.584C262.281 137.984 258.383 137.232 252.987 136.331C245.075 135.269 237.755 134.166 231.025 133.02Z" fill="url(#paint1_linear_149_7611)"/>
<defs>
<linearGradient id="paint0_linear_149_7611" x1="-11.9168" y1="129.341" x2="232.686" y2="-280.998" gradientUnits="userSpaceOnUse">
<stop stop-color="white"/>
<stop offset="1" stop-color="#2A6FD5"/>
</linearGradient>
<linearGradient id="paint1_linear_149_7611" x1="249.978" y1="32.5076" x2="-32.3688" y2="-40.0056" gradientUnits="userSpaceOnUse">
<stop stop-color="white"/>
<stop offset="1" stop-color="#2E75DE"/>
</linearGradient>
</defs>
</svg>
